<?xml version="1.0" encoding="UTF-8" standalone="no"?>
<!-- Created with Inkscape (http://www.inkscape.org/) -->

<svg
   xmlns:dc="http://purl.org/dc/elements/1.1/"
   xmlns:cc="http://creativecommons.org/ns#"
   xmlns:rdf="http://www.w3.org/1999/02/22-rdf-syntax-ns#"
   xmlns:svg="http://www.w3.org/2000/svg"
   xmlns="http://www.w3.org/2000/svg"
   xmlns:sodipodi="http://sodipodi.sourceforge.net/DTD/sodipodi-0.dtd"
   xmlns:inkscape="http://www.inkscape.org/namespaces/inkscape"
   width="633.3125"
   height="173.32663"
   id="svg2"
   version="1.1"
   inkscape:version="0.48.5 r10040"
   sodipodi:docname="webstore-on-api -with-db.svg">
  <defs
     id="defs4" />
  <sodipodi:namedview
     id="base"
     pagecolor="#000000"
     bordercolor="#666666"
     borderopacity="1.0"
     inkscape:pageopacity="1"
     inkscape:pageshadow="2"
     inkscape:zoom="1"
     inkscape:cx="183.671"
     inkscape:cy="54.395891"
     inkscape:document-units="px"
     inkscape:current-layer="layer1"
     showgrid="false"
     inkscape:window-width="1444"
     inkscape:window-height="853"
     inkscape:window-x="0"
     inkscape:window-y="27"
     inkscape:window-maximized="0"
     fit-margin-top="0"
     fit-margin-left="0"
     fit-margin-right="0"
     fit-margin-bottom="0" />
  <metadata
     id="metadata7">
    <rdf:RDF>
      <cc:Work
         rdf:about="">
        <dc:format>image/svg+xml</dc:format>
        <dc:type
           rdf:resource="http://purl.org/dc/dcmitype/StillImage" />
        <dc:title />
      </cc:Work>
    </rdf:RDF>
  </metadata>
  <g
     inkscape:label="Layer 1"
     inkscape:groupmode="layer"
     id="layer1"
     transform="translate(27.8125,-136.53125)">
    <rect
       style="fill:none;stroke:#ffffff;stroke-width:4;stroke-miterlimit:4;stroke-dasharray:none"
       id="rect3971"
       width="105.71429"
       height="50"
       x="496"
       y="-305.00891"
       transform="scale(1,-1)"
       inkscape:export-filename="/Users/dave/dev/presentations/net-to-node-presentation/img/webstore-on-api.svg.png"
       inkscape:export-xdpi="90"
       inkscape:export-ydpi="90" />
    <rect
       inkscape:export-ydpi="90"
       inkscape:export-xdpi="90"
       inkscape:export-filename="/Users/dave/dev/presentations/net-to-node-presentation/img/webstore-on-api.svg.png"
       transform="scale(1,-1)"
       y="-305.00891"
       x="378"
       height="50"
       width="105.71429"
       id="rect3969"
       style="fill:none;stroke:#ffffff;stroke-width:4;stroke-miterlimit:4;stroke-dasharray:none" />
    <rect
       style="fill:none;stroke:#ffffff;stroke-width:4.2236352;stroke-miterlimit:4;stroke-dasharray:none"
       id="rect3757"
       width="344.0397"
       height="48.57143"
       x="259.34879"
       y="191.62686"
       inkscape:export-filename="/Users/dave/dev/presentations/net-to-node-presentation/img/webstore-on-api.svg.png"
       inkscape:export-xdpi="90"
       inkscape:export-ydpi="90" />
    <rect
       style="fill:none;stroke:#ffffff;stroke-width:4;stroke-miterlimit:4;stroke-dasharray:none"
       id="rect3759"
       width="105.71429"
       height="50"
       x="260"
       y="-305.00891"
       transform="scale(1,-1)"
       inkscape:export-filename="/Users/dave/dev/presentations/net-to-node-presentation/img/webstore-on-api.svg.png"
       inkscape:export-xdpi="90"
       inkscape:export-ydpi="90" />
    <text
       xml:space="preserve"
       style="font-size:36px;font-style:normal;font-variant:normal;font-weight:normal;font-stretch:normal;text-align:start;line-height:125%;letter-spacing:0px;word-spacing:0px;writing-mode:lr-tb;text-anchor:start;fill:#ffffff;fill-opacity:1;stroke:#ffffff;font-family:Arial;-inkscape-font-specification:Arial"
       x="300.85129"
       y="292.89368"
       id="text3811"
       sodipodi:linespacing="125%"
       inkscape:export-filename="/Users/dave/dev/presentations/net-to-node-presentation/img/webstore-on-api.svg.png"
       inkscape:export-xdpi="90"
       inkscape:export-ydpi="90"><tspan
         sodipodi:role="line"
         id="tspan3813"
         x="300.85129"
         y="292.89368">A</tspan></text>
    <text
       xml:space="preserve"
       style="font-size:36px;font-style:normal;font-variant:normal;font-weight:normal;font-stretch:normal;text-align:start;line-height:125%;letter-spacing:0px;word-spacing:0px;writing-mode:lr-tb;text-anchor:start;fill:#ffffff;fill-opacity:1;stroke:#ffffff;font-family:Arial;-inkscape-font-specification:Arial"
       x="417.70758"
       y="292.89368"
       id="text3860"
       sodipodi:linespacing="125%"
       inkscape:export-filename="/Users/dave/dev/presentations/net-to-node-presentation/img/webstore-on-api.svg.png"
       inkscape:export-xdpi="90"
       inkscape:export-ydpi="90"><tspan
         sodipodi:role="line"
         id="tspan3862"
         x="417.70758"
         y="292.89368">P</tspan></text>
    <text
       xml:space="preserve"
       style="font-size:36px;font-style:normal;font-variant:normal;font-weight:normal;font-stretch:normal;text-align:start;line-height:125%;letter-spacing:0px;word-spacing:0px;writing-mode:lr-tb;text-anchor:start;fill:#ffffff;fill-opacity:1;stroke:#ffffff;font-family:Arial;-inkscape-font-specification:Arial"
       x="544.43506"
       y="292.89368"
       id="text3864"
       sodipodi:linespacing="125%"
       inkscape:export-filename="/Users/dave/dev/presentations/net-to-node-presentation/img/webstore-on-api.svg.png"
       inkscape:export-xdpi="90"
       inkscape:export-ydpi="90"><tspan
         sodipodi:role="line"
         id="tspan3866"
         x="544.43506"
         y="292.89368">I</tspan></text>
    <text
       xml:space="preserve"
       style="font-size:36.38262558px;font-style:normal;font-variant:normal;font-weight:normal;font-stretch:normal;text-align:start;line-height:125%;letter-spacing:0px;word-spacing:0px;writing-mode:lr-tb;text-anchor:start;fill:#ffffff;fill-opacity:1;stroke:#ffffff;font-family:Arial;-inkscape-font-specification:Arial"
       x="334.55853"
       y="225.10594"
       id="text3868"
       sodipodi:linespacing="125%"
       inkscape:export-filename="/Users/dave/dev/presentations/net-to-node-presentation/img/webstore-on-api.svg.png"
       inkscape:export-xdpi="90"
       inkscape:export-ydpi="90"><tspan
         sodipodi:role="line"
         id="tspan3870"
         x="334.55853"
         y="225.10594">7digital.com</tspan></text>
    <path
       style="fill:#ffffff;stroke:#ffffff"
       d="m 254.34404,212.30194 c -1.85625,0 -4.78125,0.28125 -6.5,0.625 -2.8089,0.56178 -3.12556,0.99167 -3.13058,4.25 -0.003,1.99375 -0.48587,5.3547 -1.07289,7.46877 -0.58703,2.11408 -0.81026,4.10083 -0.49607,4.41502 0.53545,0.53545 8.94522,-1.58243 12.82454,-3.22968 m 0,0 c 1.24156,-0.52719 1.75,-0.28431 1.75,0.83597 0,2.03817 -7.5335,4.18093 -19.64657,5.5881 -14.88624,1.72933 -20.76698,4.4836 -25.00176,11.70971 -2.06864,3.52987 -2.43102,5.10061 -1.8685,8.09908 0.97472,5.19571 6.767,10.39205 15.1836,13.62143 8.45403,3.24373 11.67387,5.33433 14.85363,9.64425 4.10187,5.55978 2.98768,10.90238 -2.68617,12.88029 -4.06326,1.41646 -5.63705,0.14947 -4.0744,-3.28016 1.7122,-3.75789 0.513,-6.62778 -2.76947,-6.62778 -3.58677,0 -4.77148,2.76458 -2.01276,4.69686 1.11232,0.7791 2.0224,2.06603 2.0224,2.85984 0,1.94451 -0.67963,1.81968 -3.27936,-0.60234 -2.97276,-2.76954 -8.09564,-2.3324 -8.53132,0.72798 -0.40663,2.85626 3.03453,4.7053 7.42951,3.99209 3.54167,-0.57473 5.58882,0.94656 3.25929,2.42206 -0.75797,0.48009 -3.48906,0.87978 -6.0691,0.8882 -5.11458,0.0167 -6.69525,1.24254 -4.70087,3.64563 1.19224,1.43655 5.57834,1.56634 9.76685,0.289 0.75625,-0.23063 1.5554,0.0656 1.7759,0.65837 0.49651,1.33471 -3.89421,3.42231 -7.19795,3.42231 -3.42764,0 -3.32631,3.64495 0.1453,5.22672 3.84327,1.75111 9.76935,-1.56052 10.24198,-5.72347 0.39571,-3.48538 1.58954,-4.46677 5.45943,-4.48794 6.05475,-0.0331 13.39349,-6.34956 14.37022,-12.36843 1.40609,-8.66474 -7.77245,-20.30988 -19.42322,-24.64292 -8.10984,-3.01614 -14.00029,-6.65235 -14.78584,-9.1274 -1.95093,-6.14685 8.79877,-11.51594 25.82772,-12.90001 6.11474,-0.49699 11.35078,-0.67056 11.63563,-0.38571 1.30196,1.30196 -3.05415,2.37987 -9.67417,2.39385 -5.62255,0.0119 -7.60472,0.40814 -8.83024,1.76531 -2.8909,3.20147 -8.49088,13.58041 -7.69939,14.26998 0.42879,0.37359 2.79599,1.45984 5.26042,2.41388 13.22235,5.11872 22.66915,17.77753 20.53112,27.51192 -1.33933,6.0979 -9.86031,12.96793 -16.16408,13.03226 -1.41527,0.0144 -2.5122,0.96357 -3.20363,2.77196 -3.07409,8.04005 -11.54564,10.93947 -16.75176,5.73335 l 0,5e-5 c -1.62742,-1.62742 -2.31006,-3.16755 -1.93197,-4.35882 0.33479,-1.05482 -0.0661,-2.38224 -0.93789,-3.10579 -1.65707,-1.37524 -2.08117,-6.55548 -0.61108,-7.46405 0.53192,-0.32874 0.42781,-1.84654 -0.25,-3.64469 -1.0658,-2.82748 -0.93033,-3.28027 1.64426,-5.49568 1.54317,-1.32787 3.43522,-2.41432 4.20455,-2.41432 0.76933,0 2.52378,-1.125 3.89878,-2.5 4.66099,-4.66099 10.79091,-1.91745 10.79091,4.82964 0,3.10027 0.24234,3.54814 1.4,2.58737 0.77,-0.63905 1.4,-2.53394 1.4,-4.21087 0,-4.33599 -6.80241,-10.59088 -14.45385,-13.29048 l -5.90763,-2.08434 -5.59521,2.88567 c -3.07736,1.58712 -8.62103,3.40398 -12.31926,4.03745 l -6.72404,1.15179 0,3.3995 c 0,1.86973 1.19064,5.51761 2.64587,8.10639 2.43507,4.3319 2.53451,4.94115 1.24814,7.64738 -3.76017,7.9105 -22.41109,7.89207 -31.57697,-0.0312 -2.8806,-2.49008 -3.61295,-3.82553 -3.53827,-6.45207 0.14677,-5.16201 3.53704,-8.07622 9.39554,-8.07622 4.81822,0 4.82569,-0.005 4.82569,-3.38871 0,-3.1185 -0.29626,-3.44429 -3.71544,-4.08573 -2.0435,-0.38336 -5.05556,-1.39002 -6.69348,-2.23702 -2.85249,-1.47508 -3.07061,-1.43237 -5.17411,1.01309 -1.20784,1.4042 -2.99703,4.72327 -3.97599,7.37573 -2.76362,7.48797 -4.12976,8.63715 -9.40777,7.91371 -6.02256,-0.82548 -14.15977,-5.93321 -17.39081,-10.91622 -3.52616,-5.43814 -3.67257,-12.35843 -0.32795,-15.50054 3.2956,-3.09605 8.67646,-2.89428 12.68123,0.47551 3.12969,2.63346 3.16125,2.6377 5.11277,0.68617 1.95153,-1.95152 1.93632,-2.0044 -2.46467,-8.56741 -6.76606,-10.08997 -8.15474,-15.11863 -8.08262,-29.26858 0.057,-11.17542 0.29058,-12.58065 3.39984,-20.45005 2.23249,-5.65034 2.95577,-8.57768 2.183,-8.83527 -0.63561,-0.21188 -3.94583,-2.43922 -7.35602,-4.94967 -3.4102,-2.51044 -8.62185,-5.67304 -11.58145,-7.02798 l -5.38108,-2.46355 -16.50513,1.82138 c -15.485463,1.70886 -16.894533,1.71924 -22.808553,0.16812 -3.46689,-0.9093 -8.48781,-2.98883 -11.1576,-4.62119 -12.5986,-7.70301 -28.68725,-8.66222 -40.85417,-2.43573 -7.43216,3.80345 -18.03535,5.69504 -32.210087,5.74623 -10.92782,0.0395 -13.49749,0.3344 -14.87367,1.70709 -1.55081,1.54689 -1.36708,1.84219 2.71008,4.3557 12.40089,7.64499 15.884963,11.61777 17.307237,19.73492 0.50243,2.86749 1.12875,3.74999 2.66141,3.74999 2.5232,0 8.0415,2.81113 9.54378,4.86178 1.74675,2.38436 -1.23461,8.13822 -4.21682,8.13822 -0.69745,0 -2.65207,1.38398 -4.3436,3.07551 -2.19528,2.19528 -3.863,2.99847 -5.826927,2.80632 -1.51328,-0.14805 -3.73433,0.26797 -4.93567,0.92449 -3.52837,1.92823 -6.26853,1.39473 -9.51598,-1.85271 -2.51293,-2.51293 -2.95344,-3.61917 -2.51559,-6.31734 0.51075,-3.14734 0.36708,-3.31474 -3.80171,-4.42972 -5.08881,-1.36105 -6.48504,-4.02747 -4.05274,-7.73964 1.97121,-3.00842 5.25306,-3.91821 8.998,-2.49438 3.6425,1.38487 4.06931,0.88278 2.23529,-2.62959 -1.86501,-3.57174 -6.19107,-7.6242 -10.41301,-9.75445 -1.7875,-0.90191 -3.25,-2.33208 -3.25,-3.17815 0,-2.95624 10.91247,4.47406 14.40977,9.81162 2.74911,4.19567 3.73249,8.78622 2.02272,9.44232 -0.80188,0.30771 -2.09583,0.0301 -2.87544,-0.61693 -0.77961,-0.64702 -3.13638,-1.03487 -5.23726,-0.86188 -3.0445,0.25069 -3.88285,0.75747 -4.13047,2.49687 -0.42195,2.96386 2.84539,4.58937 7.47795,3.7203 3.49581,-0.65582 3.60842,-0.58853 2.85739,1.70732 -0.43002,1.31452 -0.83648,3.94238 -0.90325,5.83969 -0.097,2.7565 0.41198,3.75144 2.53317,4.95163 2.29652,1.29939 2.88511,1.31067 4.36362,0.0836 1.34674,-1.11769 1.58895,-2.4324 1.14254,-6.20163 -0.84404,-7.12655 2.84003,-5.63448 4.01849,1.62751 0.61858,3.81186 1.29757,4.2072 4.386517,2.55405 2.68852,-1.43886 2.41547,-4.60341 -0.56574,-6.55678 -1.375004,-0.90093 -2.500007,-2.03631 -2.500007,-2.52305 0,-1.75963 3.146697,-0.8292 5.645057,1.66915 2.83102,2.83102 5.07183,2.87594 6.74776,0.13527 1.61724,-2.64469 -3.56116,-7.03847 -7.5972,-6.4461 -3.23838,0.4753 -4.022214,-0.33246 -4.492664,-4.62979 -0.746403,-6.81796 -6.373003,-13.34936 -16.084583,-18.67109 -4.20513,-2.30433 -6.1529,-5.62129 -4.69044,-7.98761 1.80393,-2.91882 7.55181,-4.06962 16.89934,-3.38347 10.979837,0.80597 22.477307,-1.15759 32.572737,-5.56285 14.34346,-6.25895 24.55208,-5.87238 39.5,1.49572 11.86327,5.84763 16.53362,6.89245 27.27197,6.10109 25.880263,-1.90724 26.145613,-1.90848 30.764403,-0.14455 2.46035,0.93962 7.09702,3.63982 10.30372,6.00046 6.04248,4.44822 10.17282,6.94243 10.54822,6.36982 0.11935,-0.18206 0.97494,-1.54372 1.9013,-3.02592 l 1.68428,-2.69489 -9.02898,-6.03939 c -5.10911,-3.41743 -11.50707,-6.75986 -14.73695,-7.69891 -5.25741,-1.52853 -6.69464,-1.53685 -18.20796,-0.1055 -15.813383,1.96593 -22.658963,1.2293 -34.500043,-3.71245 -15.23227,-6.35703 -20.50125,-7.83561 -27.99996,-7.85735 -8.09031,-0.0235 -11.62979,0.95832 -24,6.65717 l -9,4.14622 -14.791737,-0.30421 c -14.03779,-0.28869 -15.07343,-0.17523 -20.31872,2.22615 -4.77172,2.18456 -5.48233,2.29832 -5.20002,0.83244 0.18767,-0.97452 2.4537,-2.51666 5.31873,-3.61966 4.09401,-1.57614 7.77929,-1.94091 20.49174,-2.02824 l 15.500007,-0.10648 7.69659,-3.70654 c 18.75303,-9.03111 26.97724,-9.07536 48.80341,-0.26256 14.29699,5.77273 14.64001,5.85494 24.5,5.87204 5.500003,0.009 14.138933,-0.3673 19.197623,-0.83743 11.77839,-1.09461 15.95794,0.0436 27.20663,7.40931 4.72766,3.09569 9.10365,5.93559 9.72442,6.31089 0.65592,0.39654 2.67268,-1.30053 4.81493,-4.05168 7.27961,-9.34873 19.62189,-17.71091 29.99639,-20.32324 l 4.66761,-1.17531 -3.3038,-2.7702 c -4.74703,-3.98032 -2.63147,-4.8987 2.61134,-1.13361 2.4265,1.74258 4.67575,3.16833 4.99834,3.16833 0.32258,0 0.5882,-1.9125 0.59026,-4.25 0.007,-8.48816 6.14232,-14.03571 15.52166,-14.03571 6.11885,0 8.94838,1.37483 11.52436,5.59953 2.48302,4.07223 2.47776,9.22858 -0.0144,14.11681 l -1.96464,3.85351 7.04434,-0.59057 c 6.07814,-0.50957 6.87945,-0.3919 5.84219,0.85793 -0.66118,0.79667 -2.49705,1.4485 -4.0797,1.4485 -3.75228,0 -3.62953,0.89996 0.58099,4.25953 7.3744,5.88405 13.32929,17.53297 14.42711,28.22222 l 0.61434,5.98174 5.90863,0.0182 c 3.81974,0.0118 6.05878,0.46017 6.33334,1.26826 0.31443,0.92544 -1.49141,1.25 -6.95503,1.25 l -7.37972,0 -1.19985,-8.23217 c -1.38916,-9.53103 -4.53732,-16.58897 -10.33966,-23.18078 -5.19441,-5.90116 -10.38647,-8.58705 -16.59951,-8.58705 -2.64632,0 -7.95175,-0.97234 -11.78984,-2.16074 -10.18916,-3.15493 -14.65424,-2.85133 -24.04637,1.63497 -11.54535,5.51482 -23.33288,17.55754 -29.76813,30.41258 -6.85411,13.69174 -7.99013,18.42939 -7.4665,31.13835 0.40027,9.71471 0.76119,11.34659 3.99808,18.07678 4.40968,9.16866 9.47345,15.08132 17.1843,20.06508 5.42084,3.50366 7.77888,4.43472 15.76907,6.22634 2.26078,0.50693 2.71196,1.21745 3.07991,4.85028 0.2371,2.34099 0.78611,5.05772 1.22001,6.03717 0.70741,1.59685 0.36834,1.71356 -3.28237,1.12979 -6.09569,-0.97474 -11.05915,0.26 -12.33928,3.06959 -1.81851,3.99118 -0.32684,6.91061 4.89385,9.57802 6.35845,3.24873 19.8344,3.56087 23.17482,0.53679 2.6612,-2.40918 2.64172,-2.79714 -0.45867,-9.13411 -1.83755,-3.75582 -2.47437,-6.4728 -2.25,-9.59967 l 0.31293,-4.36123 6,-0.61978 c 3.29999,-0.34088 8.59485,-1.61347 11.76635,-2.82797 l 5.76635,-2.20819 -4.03913,-4.5887 c -4.54685,-5.16549 -5.49379,-7.78548 -4.6634,-12.90261 1.33837,-8.2474 10.96192,-15.43124 23.4924,-17.53673 8.41827,-1.41452 8.69489,-1.71915 10.47371,-11.5339 1.05179,-5.8033 1.54533,-6.7866 3.70848,-7.38848 3.87874,-1.07923 11.99523,-1.00726 11.99523,0.10636 0,0.55 -1.51875,1 -3.375,1 m -101.0199,70.23474 c 0.6078,-0.40408 1.66865,-2.53469 2.35746,-4.73469 0.6888,-2.2 2.39537,-5.69495 3.79238,-7.76655 l 2.54001,-3.76654 -3.89747,-3.37817 c -4.32442,-3.74822 -6.57219,-3.49414 -8.60754,0.97296 -1.47892,3.24588 -2.21187,3.08322 -4.63837,-1.0294 -2.30837,-3.91239 -6.0714,-5.34548 -9.69771,-3.69322 -4.42907,2.01801 -4.09346,9.53548 0.69761,15.62634 2.02156,2.57 8.04617,6.13334 12.84854,7.59945 3.32458,1.01496 3.33337,1.01528 4.60509,0.16982 z m 78.18361,-34.53329 c 1.76621,-2.91423 3.21129,-5.59082 3.21129,-5.94798 0,-0.84157 -5.86848,1.17108 -8.66603,2.9721 -3.05232,1.96504 -3.66027,4.25645 -1.70309,6.4191 2.56721,2.83674 3.67465,2.30401 7.15783,-3.44322 z M 218.73641,156.7739 c 1.19926,-1.94045 2.4173,-5.29373 2.70675,-7.45173 0.45613,-3.40072 0.12002,-4.32988 -2.522,-6.9719 -2.3629,-2.3629 -3.93137,-3.04827 -6.97597,-3.04827 -8.72095,0 -12.41039,3.31349 -13.56113,12.17921 l -0.60734,4.67921 4.72115,1.52209 c 4.26866,1.3762 7.5935,2.03895 12.38961,2.46966 0.93075,0.0836 2.63252,-1.41009 3.84893,-3.37827 z m -38.51736,82.30656 c -12.85393,-4.55731 -14.7534,-14.61048 -7.23245,-38.27846 4.07037,-12.80919 4.32347,-14.19138 2.9756,-16.25 -1.6593,-2.53428 -0.19048,-3.09639 1.80577,-0.69105 0.97554,1.17545 2.29714,1.39613 5.37245,0.89708 2.76283,-0.44835 3.75602,-0.33338 3.07863,0.35637 -0.55,0.56004 -2.125,1.16885 -3.5,1.35292 -2.27311,0.30431 -2.4816,0.73267 -2.29725,4.71994 0.36259,7.84226 7.88783,13.05317 18.9077,13.09278 4.93273,0.0177 6.86011,-0.47784 9.99999,-2.57122 5.37434,-3.5831 7.39797,-6.39461 6.77074,-9.40682 l -0.52057,-2.5 2.13888,2.44623 c 1.56133,1.78568 3.09335,2.41917 5.67366,2.34603 2.48459,-0.0704 3.2206,0.21398 2.47731,0.95727 -0.58161,0.58161 -2.43235,1.01838 -4.11275,0.97061 -3.56045,-0.10124 -4.27145,1.00484 -9.72555,15.12973 -6.33706,16.41155 -11.18129,23.97972 -17.41094,27.2012 -3.22445,1.66743 -10.03621,1.77498 -14.40122,0.22739 z m 11.12902,-1.37712 c 1.65164,-0.44323 2.38036,-1.8229 3.25,-6.15312 1.61955,-8.06437 1.56857,-8.24823 -2.28722,-8.24823 -3.28564,0 -3.48341,0.22274 -5.5,6.19417 -1.15049,3.4068 -2.0918,6.7818 -2.0918,7.5 0,1.36406 2.9919,1.68323 6.62902,0.70718 z m -6.42791,-6.19353 c 0.9356,-3.18418 1.95992,-6.46388 2.27625,-7.28823 0.39899,-1.03975 -0.45007,-1.86955 -2.7721,-2.70921 -4.57212,-1.6533 -4.37274,-1.75053 -6.56274,3.20033 -3.58118,8.09586 -3.58004,8.35212 0.0471,10.56352 1.82072,1.11006 3.7604,2.01935 4.3104,2.02065 0.55,10e-4 1.7655,-2.60289 2.70111,-5.78706 z m 14.12994,0.54218 c 2.25402,-3.01113 5.66894,-9.08473 5.66894,-10.0825 0,-0.2375 -1.68291,0.14673 -3.7398,0.85386 -3.48408,1.19777 -3.81646,1.66836 -4.8609,6.88216 -0.6166,3.07807 -0.75658,5.59648 -0.31108,5.59648 0.4455,0 1.90478,-1.4625 3.24284,-3.25 z m -22.58274,-6.48094 2.24832,-5.72698 -2.31641,-2.31641 -2.31641,-2.31641 -1.8452,3.42632 c -1.64386,3.05246 -1.70408,3.93033 -0.55194,8.04537 0.71129,2.54048 1.57227,4.61816 1.91329,4.61707 0.34102,-10e-4 1.63178,-2.57912 2.86835,-5.72896 z m 22.21151,-9.8744 c 2.59453,-8.40013 2.5951,-8.39466 -0.8724,-8.39466 -2.67525,0 -3.12339,0.55172 -5.5,6.77121 -1.42308,3.72417 -2.58742,7.09917 -2.58742,7.5 0,0.40084 1.55692,0.72879 3.45982,0.72879 3.39132,0 3.50021,-0.13078 5.5,-6.60534 z m 3.34806,5.67838 c 2.0319,-0.77253 2.64612,-2.02951 3.68681,-7.54495 1.34649,-7.1361 1.13773,-8.02682 -1.66934,-7.1229 -1.26346,0.40685 -2.46567,2.8976 -3.90543,8.0913 -2.16919,7.82494 -2.09306,8.09013 1.88796,6.57655 z m -11.30572,-6.32304 c 1.24858,-3.4375 2.46144,-6.75887 2.69525,-7.38082 0.2338,-0.62195 -0.9481,-1.60951 -2.62647,-2.19459 -2.92897,-1.02105 -3.14991,-0.89527 -5.49961,3.13081 -2.61215,4.47579 -4.83103,9.76824 -4.31268,10.28658 0.56524,0.56524 5.21387,2.27969 6.35736,2.34463 0.6138,0.0349 2.13757,-2.74911 3.38615,-6.18661 z m -6.44329,-12.32669 c -1.06762,-0.78282 -2.20854,-1.4233 -2.53537,-1.4233 -0.32683,0 -2.00498,2.86084 -3.72922,6.35741 l -3.13499,6.35743 2.16587,2.16587 2.16587,2.16587 3.50448,-7.1 c 3.41715,-6.92303 3.45611,-7.13545 1.56336,-8.52328 z m -10.55887,11.51767 c 0,-0.51754 -0.45,-0.94098 -1,-0.94098 -0.55,0 -1,0.70156 -1,1.55902 0,0.85746 0.45,1.2809 1,0.94098 0.55,-0.33992 1,-1.04148 1,-1.55902 z m 37.76069,-10.5136 c -0.14511,-0.14512 -0.97906,0.26186 -1.85322,0.90439 -0.93812,0.68955 -1.85385,3.42186 -2.23483,6.66823 l -0.64546,5.5 2.49868,-6.40439 c 1.37427,-3.52242 2.37995,-6.52312 2.23483,-6.66823 z M 180.67473,200.302 c -0.0334,-0.86639 -2.92073,-4.37453 -3.23204,-3.927 -1.08587,1.56106 -4.29846,13.70254 -3.92337,14.8278 0.38464,1.15391 7.21881,-9.25751 7.15541,-10.9008 z m 41.36503,-25.46358 c 2.22026,-2.22026 2.1203,-3.10443 -0.57072,-5.04834 l -2.25,-1.62533 2.5,0.31863 c 2.12768,0.27117 2.5,0.83783 2.5,3.80492 0,2.64866 -0.46355,3.57558 -1.92928,3.85786 -1.80645,0.34789 -1.82237,0.26463 -0.25,-1.30774 z M 206.71904,172.502 c 0,-3.21592 1.60253,-5.2 4.2,-5.2 2.23315,0 2.3498,2.77003 0.2433,5.77749 -2.20138,3.1429 -4.4433,2.85152 -4.4433,-0.57749 z m -11.64133,-1.70772 c -0.64017,-1.66826 2.10594,-6.49228 3.69578,-6.49228 1.68564,0 2.27449,2.98263 1.09846,5.56377 -1.24012,2.72176 -3.90784,3.23842 -4.79424,0.92851 z m -7.67444,-3.25123 c -1.20586,-1.86658 0.1019,-4.95186 2.3479,-5.5392 1.08124,-0.28275 2.18627,-0.1575 2.45564,0.27834 0.26936,0.43584 -0.36707,1.01649 -1.41428,1.29034 -1.04722,0.27386 -2.05522,1.56252 -2.23999,2.86369 -0.23265,1.63832 -0.58605,1.97866 -1.14927,1.10683 z"
       id="path3084"
       inkscape:connector-curvature="0"
       sodipodi:nodetypes="cscssccsssssssssssssssssscssssssssssscsscsccscssssssssscsscssssssssssssssssssscsscssssssssssssssssssssssssssssssssssssssssssssssssscscsssssscssssscsscsscsscssscssscssssscssscsssssssssssssssssscsscsssssscssscssssssssssssssssscscsssssssssssscscssssssssssscsssscccssssssscccsscssssssssssssscssscsssscccssssssscsscscccscsscsssssssssssssscsss" />
    <rect
       style="fill:none;stroke:#ffffff;stroke-width:4;stroke-miterlimit:4;stroke-dasharray:none"
       id="rect3759-2"
       width="105.71429"
       height="50"
       x="-25.825897"
       y="-291.5"
       transform="scale(1,-1)"
       inkscape:export-filename="/Users/dave/dev/presentations/net-to-node-presentation/img/webstore-on-api.svg.png"
       inkscape:export-xdpi="90"
       inkscape:export-ydpi="90" />
    <text
       xml:space="preserve"
       style="font-size:36px;font-style:normal;font-variant:normal;font-weight:normal;font-stretch:normal;text-align:start;line-height:125%;letter-spacing:0px;word-spacing:0px;writing-mode:lr-tb;text-anchor:start;fill:#ffffff;fill-opacity:1;stroke:#ffffff;font-family:Arial;-inkscape-font-specification:Arial"
       x="2.0253906"
       y="278.38477"
       id="text3811-5"
       sodipodi:linespacing="125%"
       inkscape:export-filename="/Users/dave/dev/presentations/net-to-node-presentation/img/webstore-on-api.svg.png"
       inkscape:export-xdpi="90"
       inkscape:export-ydpi="90"><tspan
         sodipodi:role="line"
         id="tspan3813-0"
         x="2.0253906"
         y="278.38477">DB</tspan></text>
  </g>
</svg>
